<mxfile host="app.diagrams.net" modified="2021-11-02T16:32:56.236Z" agent="5.0 (Windows NT 10.0; Win64; x64) AppleWebKit/537.36 (KHTML, like Gecko) Chrome/95.0.4638.54 Safari/537.36" etag="aNweea-JLGlnz-UROaRJ" version="15.6.5" type="github">
  <diagram id="C5RBs43oDa-KdzZeNtuy" name="Page-1">
    <mxGraphModel dx="1038" dy="547" grid="1" gridSize="10" guides="1" tooltips="1" connect="1" arrows="1" fold="1" page="1" pageScale="1" pageWidth="827" pageHeight="1169" math="0" shadow="0">
      <root>
        <mxCell id="WIyWlLk6GJQsqaUBKTNV-0" />
        <mxCell id="WIyWlLk6GJQsqaUBKTNV-1" parent="WIyWlLk6GJQsqaUBKTNV-0" />
        <mxCell id="RRST1wuGrqOHtEBvhgzJ-11" value="Raw Data" style="ellipse;shape=cloud;whiteSpace=wrap;html=1;fontColor=default;strokeColor=default;fillColor=default;" vertex="1" parent="WIyWlLk6GJQsqaUBKTNV-1">
          <mxGeometry x="80" y="70" width="120" height="80" as="geometry" />
        </mxCell>
        <mxCell id="RRST1wuGrqOHtEBvhgzJ-15" value="" style="endArrow=classic;html=1;rounded=0;labelBackgroundColor=default;fontColor=default;strokeColor=default;entryX=0;entryY=0.5;entryDx=0;entryDy=0;" edge="1" parent="WIyWlLk6GJQsqaUBKTNV-1" source="RRST1wuGrqOHtEBvhgzJ-11" target="RRST1wuGrqOHtEBvhgzJ-18">
          <mxGeometry relative="1" as="geometry">
            <mxPoint x="360" y="280" as="sourcePoint" />
            <mxPoint x="280" y="160" as="targetPoint" />
            <Array as="points">
              <mxPoint x="270" y="110" />
            </Array>
          </mxGeometry>
        </mxCell>
        <mxCell id="RRST1wuGrqOHtEBvhgzJ-20" value="Initialize" style="edgeLabel;html=1;align=center;verticalAlign=middle;resizable=0;points=[];fontColor=default;" vertex="1" connectable="0" parent="RRST1wuGrqOHtEBvhgzJ-15">
          <mxGeometry x="-0.214" y="1" relative="1" as="geometry">
            <mxPoint as="offset" />
          </mxGeometry>
        </mxCell>
        <mxCell id="RRST1wuGrqOHtEBvhgzJ-18" value="WeatherDataVec" style="swimlane;fontColor=default;strokeColor=default;fillColor=default;" vertex="1" parent="WIyWlLk6GJQsqaUBKTNV-1">
          <mxGeometry x="314" y="10" width="200" height="200" as="geometry" />
        </mxCell>
        <mxCell id="RRST1wuGrqOHtEBvhgzJ-19" value="WeatherDataLine" style="rounded=0;whiteSpace=wrap;html=1;fontColor=default;strokeColor=default;fillColor=default;" vertex="1" parent="RRST1wuGrqOHtEBvhgzJ-18">
          <mxGeometry x="16" y="110" width="120" height="60" as="geometry" />
        </mxCell>
        <mxCell id="RRST1wuGrqOHtEBvhgzJ-21" value="" style="shape=actor;whiteSpace=wrap;html=1;fontColor=default;strokeColor=default;fillColor=default;" vertex="1" parent="WIyWlLk6GJQsqaUBKTNV-1">
          <mxGeometry x="670" y="60" width="40" height="60" as="geometry" />
        </mxCell>
        <mxCell id="RRST1wuGrqOHtEBvhgzJ-22" value="" style="shape=doubleArrow;whiteSpace=wrap;html=1;fontColor=default;strokeColor=default;fillColor=default;" vertex="1" parent="WIyWlLk6GJQsqaUBKTNV-1">
          <mxGeometry x="550" y="60" width="100" height="60" as="geometry" />
        </mxCell>
      </root>
    </mxGraphModel>
  </diagram>
</mxfile>
